<?xml version="1.0" encoding="UTF-8" standalone="no"?>
<!-- Created with Inkscape (http://www.inkscape.org/) -->

<svg
   xmlns:dc="http://purl.org/dc/elements/1.1/"
   xmlns:cc="http://creativecommons.org/ns#"
   xmlns:rdf="http://www.w3.org/1999/02/22-rdf-syntax-ns#"
   xmlns:svg="http://www.w3.org/2000/svg"
   xmlns="http://www.w3.org/2000/svg"
   xmlns:sodipodi="http://sodipodi.sourceforge.net/DTD/sodipodi-0.dtd"
   xmlns:inkscape="http://www.inkscape.org/namespaces/inkscape"
   width="12in"
   height="12in"
   viewBox="0 0 1080 1080"
   id="svg2"
   version="1.1"
   inkscape:version="0.91 r13725"
   sodipodi:docname="RodJigRedesigned1.svg">
  <defs
     id="defs4" />
  <sodipodi:namedview
     id="base"
     pagecolor="#ffffff"
     bordercolor="#666666"
     borderopacity="1.0"
     inkscape:pageopacity="0.0"
     inkscape:pageshadow="2"
     inkscape:zoom="0.69999999"
     inkscape:cx="396.577"
     inkscape:cy="517.9139"
     inkscape:document-units="mm"
     inkscape:current-layer="layer1"
     showgrid="false"
     units="in"
     inkscape:window-width="1680"
     inkscape:window-height="998"
     inkscape:window-x="-8"
     inkscape:window-y="-8"
     inkscape:window-maximized="1" />
  <metadata
     id="metadata7">
    <rdf:RDF>
      <cc:Work
         rdf:about="">
        <dc:format>image/svg+xml</dc:format>
        <dc:type
           rdf:resource="http://purl.org/dc/dcmitype/StillImage" />
        <dc:title />
      </cc:Work>
    </rdf:RDF>
  </metadata>
  <g
     inkscape:label="Layer 1"
     inkscape:groupmode="layer"
     id="layer1"
     transform="translate(0,27.637855)">
    <path
       style="fill:none;fill-opacity:1;stroke:#000000;stroke-width:3.54330707;stroke-linecap:round;stroke-linejoin:miter;stroke-miterlimit:4;stroke-dasharray:none;stroke-opacity:1"
       d="m 22.50005,725.49241 0,22.75 67.5,0 0,22.49996 -67.5,0 0,56 728.99999,0 0,22.5 -728.99999,0 0,56 67.5,0 0,22.5 -67.5,0 0,22.75 900.00002,0 0,-224.99996 -900.00002,0 z"
       id="rect4765"
       inkscape:connector-curvature="0" />
    <path
       style="fill:none;fill-opacity:1;stroke:#000000;stroke-width:3.54330707;stroke-linecap:round;stroke-linejoin:miter;stroke-miterlimit:4;stroke-dasharray:none;stroke-opacity:1"
       d="m 22.50005,-5.137855 0,225.000005 900.00002,0 0,-22.50001 67.5,0 0,-22.5 -67.5,0 0,-56.10937 -729.00002,0 0,-22.781246 729.00002,0 0,-56.10938 67.5,0 0,-22.499999 -67.5,0 0,-22.5 -900.00002,0 z"
       id="rect4763"
       inkscape:connector-curvature="0" />
    <path
       style="fill:none;fill-opacity:1;stroke:#000000;stroke-width:3.54330707;stroke-linecap:round;stroke-linejoin:miter;stroke-miterlimit:4;stroke-dasharray:none;stroke-opacity:1"
       d="m 22.50005,238.40556 0,22.75001 67.50001,0 0,22.5 -67.50001,0 0,55.5 900.00002,0 0,-55.75 67.5,0 0,-22.5 -67.5,0 0,-22.5 -900.00002,0 z m 0,123.25001 0,56.5 67.50001,0 0,22.5 -67.50001,0 0,22.75 900.00002,0 0,-23 67.5,0 0,-22.5 -67.5,0 0,-56.25 -900.00002,0 z"
       id="rect4759"
       inkscape:connector-curvature="0" />
    <path
       id="path4215"
       d="m 22.50005,481.94896 0,22.75 67.50001,0 0,22.50001 -67.50001,0 0,55.49999 900.00002,0 0,-55.75 67.5,0 0,-22.5 -67.5,0 0,-22.5 -900.00002,0 z m 0,123.25004 0,56.5 67.50001,0 0,22.5 -67.50001,0 0,22.75 900.00002,0 0,-23 67.5,0 0,-22.5 -67.5,0 0,-56.25 -900.00002,0 z"
       style="fill:none;fill-opacity:1;stroke:#000000;stroke-width:3.54330707;stroke-linecap:round;stroke-linejoin:miter;stroke-miterlimit:4;stroke-dasharray:none;stroke-opacity:1"
       inkscape:connector-curvature="0" />
  </g>
</svg>
